<svg xmlns="http://www.w3.org/2000/svg" viewBox="0 0 640 640">
  <style>.s0{fill:#178dff}.s1{fill:#ff4502}.s2{fill:#a1d436}.s3{fill:#ffd139}.s4{fill:#f3006c}.s5{fill:#c1d436}.s6{fill:#ff87e5}.s7{fill:#00b96d}</style>
  <rect width="640" height="640" rx="140" fill="#ffffff"/>
  <g transform="translate(320,320) scale(0.78) translate(-420,-320)">
  <path id="path19" class="s0" d="m277.4 552.3q0 5.8-3 9-3.1 3.2-9.1 3.2h-79c-3.8 0-6.8-1.1-8.9-3.2-2.1-2.1-3.2-5.1-3.2-9v-259.5h-29.7c-8.2 0-12.2-4-12.2-12.1v-71.4q0-12.1 12.2-12.1h29.7v-24.3q0-38.5 14.5-62c9.8-15.7 24.8-27.1 45.1-34.3q30.5-10.8 79.1-10.8h13.7c4 0 7 1 9.1 3 2 2.1 3 5.1 3 9.1v60.1q0 11.9-10.3 11.9h-10c-15 0-25.6 2.9-31.9 8.8q-9.4 8.8-9.4 27.3v11.2h50.4q12.1 0 12.1 12.1v71.4q0 5.8-3 8.9c-2 2.1-5.1 3.2-9.1 3.2h-50.1z"/>
  <path id="path25" class="s4" d="m695.9 197.2h-58.3c-3.4 0-6.3 0.8-8.5 2.3q-3.3 2.3-5.5 7.1l-8.8 20.6q-11.8-11.2-26.2-19.2c-9.6-5.4-20.3-9.5-31.9-12.5-11.7-2.9-24.3-4.4-38.1-4.4-34.4 0-66.1 8.5-95.3 25.5-29.2 17-52.2 40-69.4 69.1q-25.6 43.5-25.6 95.4 0 0.3 0 0.6h102.9v-6.3h0.9c0.9-14.7 4.2-28.3 11-40.4q11.8-21.3 32.7-33.3 20.7-11.9 46.4-11.9 25.5-0.1 46.5 12.1 21 12.2 33 33.3c6.8 12 10.1 25.6 11.1 40.2h0.9v6.3h94.3v-172.4q0-12.1-12.1-12.1z"/>
  <path id="path23" class="s3" d="m613.7 375.4h-0.9c-1-14.6-4.3-28.2-11.1-40.2q-12-21.2-33-33.3-21-12.1-46.5-12.1-25.7 0-46.4 11.9-20.9 12-32.7 33.3c-6.8 12.1-10.1 25.7-11 40.4h-0.9v6.3h182.5z"/>
  <path id="path21" class="s1" d="m613.7 382.6c0 17.5-4 33.1-12.2 47q-12.2 20.8-33.3 32.5c-14 7.8-29.7 11.6-46.7 11.6q-25.9 0.1-46.4-11.6c-13.7-7.8-24.4-18.6-32.2-32.4q-11.7-20.6-11.7-47.1v-0.9h-102.9c0.1 34.6 8.6 66.4 25.5 95.5 17 29.2 40.1 52.4 69.2 69.5 2.6 1.5 5.5 2.1 8.2 3.4 27 14.2 55.9 22.3 87.4 22.3q20.4-0.1 37.7-4.5 17.2-4.4 31.5-12.3 14.1-7.8 25.9-18.6c0.1-0.1 0.2-0.1 0.2-0.1l7.6 18.2c1.4 3.2 3.3 5.6 5.5 7.1q3.2 2.3 8.5 2.3h60.4c4 0 7.1-1.1 9.1-3.2q3-3.2 3-9v-170.6h-94.3z"/>
  <path id="path1" class="s0" d="m384.2 391.9v7.5c0-2.6 0.7-4.9 0.9-7.5z"/>
  <path id="path3" class="s0" d="m392.5 391.9v7.5c0-2.6 0.7-4.9 0.9-7.5z"/>
  <path id="path5" class="s0" d="m389.1 391.6v7.5c0-2.7 0.7-5 0.9-7.5z"/>
  <path id="path7" class="s0" d="m397.4 391.6v7.5c0-2.7 0.7-5 0.9-7.5z"/>
  </g>
</svg>
