<svg version="1.2" xmlns="http://www.w3.org/2000/svg" viewBox="0 0 3000 700" width="3000" height="700">
	<title>FarmarFestLogo</title>
	<defs>
		<clipPath clipPathUnits="userSpaceOnUse" id="cp1">
			<path d="m-381-248h3840v1196h-3840z"/>
		</clipPath>
		<clipPath clipPathUnits="userSpaceOnUse" id="cp2">
			<path d="m-381-248h3840v1196h-3840z"/>
		</clipPath>
		<clipPath clipPathUnits="userSpaceOnUse" id="cp3">
			<path d="m-381-248h3840v1196h-3840z"/>
		</clipPath>
		<clipPath clipPathUnits="userSpaceOnUse" id="cp4">
			<path d="m-381-248h3840v1196h-3840z"/>
		</clipPath>
		<clipPath clipPathUnits="userSpaceOnUse" id="cp5">
			<path d="m-381-248h3840v1196h-3840z"/>
		</clipPath>
		<clipPath clipPathUnits="userSpaceOnUse" id="cp6">
			<path d="m-381-248h3840v1196h-3840z"/>
		</clipPath>
		<clipPath clipPathUnits="userSpaceOnUse" id="cp7">
			<path d="m-381-248h3840v1196h-3840z"/>
		</clipPath>
		<clipPath clipPathUnits="userSpaceOnUse" id="cp8">
			<path d="m-381-248h3840v1196h-3840z"/>
		</clipPath>
		<clipPath clipPathUnits="userSpaceOnUse" id="cp9">
			<path d="m-381-248h3840v1196h-3840z"/>
		</clipPath>
		<clipPath clipPathUnits="userSpaceOnUse" id="cp10">
			<path d="m-381-248h3840v1196h-3840z"/>
		</clipPath>
		<clipPath clipPathUnits="userSpaceOnUse" id="cp11">
			<path d="m-381-248h3840v1196h-3840z"/>
		</clipPath>
		<clipPath clipPathUnits="userSpaceOnUse" id="cp12">
			<path d="m-381-248h3840v1196h-3840z"/>
		</clipPath>
		<clipPath clipPathUnits="userSpaceOnUse" id="cp13">
			<path d="m-381-248h3840v1196h-3840z"/>
		</clipPath>
		<clipPath clipPathUnits="userSpaceOnUse" id="cp14">
			<path d="m-381-248h3840v1196h-3840z"/>
		</clipPath>
		<clipPath clipPathUnits="userSpaceOnUse" id="cp15">
			<path d="m-381-248h3840v1196h-3840z"/>
		</clipPath>
		<clipPath clipPathUnits="userSpaceOnUse" id="cp16">
			<path d="m-381-248h3840v1196h-3840z"/>
		</clipPath>
		<clipPath clipPathUnits="userSpaceOnUse" id="cp17">
			<path d="m-381-248h3840v1196h-3840z"/>
		</clipPath>
		<clipPath clipPathUnits="userSpaceOnUse" id="cp18">
			<path d="m-381-248h3840v1196h-3840z"/>
		</clipPath>
		<clipPath clipPathUnits="userSpaceOnUse" id="cp19">
			<path d="m-381-248h3840v1196h-3840z"/>
		</clipPath>
	</defs>
	<style>
		.s0 { fill: #178dff } 
		.s1 { fill: #ff4502 } 
		.s2 { fill: #a1d436 } 
		.s3 { fill: #ffd139 } 
		.s4 { fill: #f3006c } 
		.s5 { fill: #c1d436 } 
		.s6 { fill: #ff87e5 } 
		.s7 { fill: #00b96d } 
	</style>
	<g id="layer-MC0">
		<g id="Clip-Path: Clip-Path: path1" clip-path="url(#cp1)">
			<g id="Clip-Path: path1">
				<path id="path1" class="s0" d="m384.2 391.9v7.5c0-2.6 0.7-4.9 0.9-7.5z"/>
			</g>
		</g>
		<g id="Clip-Path: Clip-Path: path3" clip-path="url(#cp2)">
			<g id="Clip-Path: path3">
				<path id="path3" class="s0" d="m392.5 391.9v7.5c0-2.6 0.7-4.9 0.9-7.5z"/>
			</g>
		</g>
		<g id="Clip-Path: Clip-Path: path5" clip-path="url(#cp3)">
			<g id="Clip-Path: path5">
				<path id="path5" class="s0" d="m389.1 391.6v7.5c0-2.7 0.7-5 0.9-7.5z"/>
			</g>
		</g>
		<g id="Clip-Path: Clip-Path: path7" clip-path="url(#cp4)">
			<g id="Clip-Path: path7">
				<path id="path7" class="s0" d="m397.4 391.6v7.5c0-2.7 0.7-5 0.9-7.5z"/>
			</g>
		</g>
		<g id="Clip-Path: Clip-Path: path9" clip-path="url(#cp5)">
			<g id="Clip-Path: path9">
				<path id="path9" class="s0" d="m1172.7 548.1c0 3.9 1.1 6.9 3.2 9.1 1.6 1.5 4.1 1.9 6.6 2.3 1 0.2 1.4 0.9 2.5 0.9h79.6c1.2 0 1.6-0.7 2.5-0.9 2.6-0.4 5.2-0.8 6.7-2.3q3.1-3.2 3.1-9.1l0.4-167.2h-104.2z"/>
			</g>
		</g>
		<g id="Clip-Path: Clip-Path: path11" clip-path="url(#cp6)">
			<g id="Clip-Path: path11">
				<path id="path11" class="s0" d="m1511.9 508v40.1c0 7-3.6 10.4-9.6 11.4-1 0.2-1.5 0.9-2.6 0.9h-79.7c-1.1 0-1.5-0.7-2.5-0.9-2.5-0.4-5-0.8-6.6-2.3-2.1-2.2-3.2-5.2-3.2-9.1l0.4-167.2h56.3v1.1q0 51.7 25.3 95.1 9.7 16.8 22.2 30.9z"/>
			</g>
		</g>
		<g id="Clip-Path: Clip-Path: path13" clip-path="url(#cp7)">
			<g id="Clip-Path: path13">
				<path id="path13" class="s0" d="m937.4 548.1q0 5.9 3.2 9.1c1.5 1.5 4.1 1.9 6.6 2.3 0.9 0.2 1.4 0.9 2.4 0.9h79.7c1.1 0 1.5-0.7 2.5-0.9 2.6-0.4 5.2-0.8 6.7-2.3q3-3.2 3-9.1l0.5-167.2h-104.6z"/>
			</g>
		</g>
		<g id="Clip-Path: Clip-Path: path15" clip-path="url(#cp8)">
			<g id="Clip-Path: path15">
				<path id="path15" class="s1" d="m1496.6 276.6q-3.5 5.2-6.8 10.8c-16.7 28.4-25.2 59.6-25.4 93.5h-56.3l0.1-21.8c0-15.2-2.4-28.2-7-39.3q-7.1-16.5-20.9-25.6-13.8-9-33.7-9c-12.6 0-24.1 3.2-34.2 9.7q-15.2 9.6-24.3 25.6c-6.1 10.5-9.6 22-10.7 34.4 0 0 0 0.1 0 0.2l-0.1 25.8h-104.2l0.1-21.8c0-4-0.6-7.4-1-11.1-0.9-10.4-2.6-20-6.1-28.2q-7-16.5-20.8-25.6c-9.2-6-20.4-9-33.7-9q-20.2 0-36 10.9-15.8 10.9-24.7 28.6c-6 11.9-8.9 24.5-8.9 37.7v18.5h-104.6v-44.7c0.7-15 3.7-29.3 8.1-43 22.1-51.6 46.9-76.7 78.5-95 23.8-13.7 51.2-21.3 80.5-21.3h4.5c12.4 0 24.5 1.5 36.2 4.1 30.3 6.7 57.3 21.6 79 42.2 2.6-2.5 5.5-4.5 8.2-6.8 29.1-24.3 66.1-39.5 107-39.5h4.5c10.4 0 20.4 1.6 30.2 3.5h0.2c2.3 0 4.1 0.7 6.3 0.8 52.2 11.6 94.9 47.6 116 95.4z"/>
			</g>
		</g>
		<g id="Clip-Path: Clip-Path: path17" clip-path="url(#cp9)">
			<g id="Clip-Path: path17">
				<path id="path17" class="s2" d="m979.8 208.7c4.1-4.2-0.9-8.6-10.1-12.3-15.1-6.1-28.1-7.4-43.6-7.4q-20.5 0-38.4 6.3-17.8 6.3-31.7 17.8-14 11.5-23.5 27.4l-15-35.8q-4-9.5-14.1-9.5h-61q-12.3 0-12.3 12.2v346.6c0 3.8 1.1 6.9 3.2 9q3.3 3.2 9.1 3.2h79.7c4.1 0 7.2-1 9.2-3.2q3.1-3.2 3.1-9v-172.1c0-20.2 3.6-37.5 11-52 7.4-14.4 15.7-26.7 27.4-34.1 11.8-7.4 19-9.8 31.9-9.8 9.5 0 18.7 7 21.5 1.5 14.2-28.5 33-57.4 53.6-78.8z"/>
			</g>
		</g>
		<g id="Clip-Path: Clip-Path: path19" clip-path="url(#cp10)">
			<g id="Clip-Path: path19">
				<path id="path19" class="s0" d="m277.4 552.3q0 5.8-3 9-3.1 3.2-9.1 3.2h-79c-3.8 0-6.8-1.1-8.9-3.2-2.1-2.1-3.2-5.1-3.2-9v-259.5h-29.7c-8.2 0-12.2-4-12.2-12.1v-71.4q0-12.1 12.2-12.1h29.7v-24.3q0-38.5 14.5-62c9.8-15.7 24.8-27.1 45.1-34.3q30.5-10.8 79.1-10.8h13.7c4 0 7 1 9.1 3 2 2.1 3 5.1 3 9.1v60.1q0 11.9-10.3 11.9h-10c-15 0-25.6 2.9-31.9 8.8q-9.4 8.8-9.4 27.3v11.2h50.4q12.1 0 12.1 12.1v71.4q0 5.8-3 8.9c-2 2.1-5.1 3.2-9.1 3.2h-50.1z"/>
			</g>
		</g>
		<g id="Clip-Path: Clip-Path: path21" clip-path="url(#cp11)">
			<g id="Clip-Path: path21">
				<path id="path21" class="s1" d="m613.7 382.6c0 17.5-4 33.1-12.2 47q-12.2 20.8-33.3 32.5c-14 7.8-29.7 11.6-46.7 11.6q-25.9 0.1-46.4-11.6c-13.7-7.8-24.4-18.6-32.2-32.4q-11.7-20.6-11.7-47.1v-0.9h-102.9c0.1 34.6 8.6 66.4 25.5 95.5 17 29.2 40.1 52.4 69.2 69.5 2.6 1.5 5.5 2.1 8.2 3.4 27 14.2 55.9 22.3 87.4 22.3q20.4-0.1 37.7-4.5 17.2-4.4 31.5-12.3 14.1-7.8 25.9-18.6c0.1-0.1 0.2-0.1 0.2-0.1l7.6 18.2c1.4 3.2 3.3 5.6 5.5 7.1q3.2 2.3 8.5 2.3h60.4c4 0 7.1-1.1 9.1-3.2q3-3.2 3-9v-170.6h-94.3z"/>
			</g>
		</g>
		<g id="Clip-Path: Clip-Path: path23" clip-path="url(#cp12)">
			<g id="Clip-Path: path23">
				<path id="path23" class="s3" d="m613.7 375.4h-0.9c-1-14.6-4.3-28.2-11.1-40.2q-12-21.2-33-33.3-21-12.1-46.5-12.1-25.7 0-46.4 11.9-20.9 12-32.7 33.3c-6.8 12.1-10.1 25.7-11 40.4h-0.9v6.3h182.5z"/>
			</g>
		</g>
		<g id="Clip-Path: Clip-Path: path25" clip-path="url(#cp13)">
			<g id="Clip-Path: path25">
				<path id="path25" class="s4" d="m695.9 197.2h-58.3c-3.4 0-6.3 0.8-8.5 2.3q-3.3 2.3-5.5 7.1l-8.8 20.6q-11.8-11.2-26.2-19.2c-9.6-5.4-20.3-9.5-31.9-12.5-11.7-2.9-24.3-4.4-38.1-4.4-34.4 0-66.1 8.5-95.3 25.5-29.2 17-52.2 40-69.4 69.1q-25.6 43.5-25.6 95.4 0 0.3 0 0.6h102.9v-6.3h0.9c0.9-14.7 4.2-28.3 11-40.4q11.8-21.3 32.7-33.3 20.7-11.9 46.4-11.9 25.5-0.1 46.5 12.1 21 12.2 33 33.3c6.8 12 10.1 25.6 11.1 40.2h0.9v6.3h94.3v-172.4q0-12.1-12.1-12.1z"/>
			</g>
		</g>
		<g id="Clip-Path: Clip-Path: path29" clip-path="url(#cp14)">
			<g id="Clip-Path: path29">
				<path id="path29" class="s5" d="m2700 312.6h-56.9c-4 0-7-1.1-9-3.2-2-2.1-3-5-3-8.9v-70.6q0-12 12-12h56.6v-83.3c0-4.1 1.1-7.1 3.6-9.1 2.4-2 5.6-2.5 9.6-1.8l79.1 15.3c7.2 1.5 10.8 5.9 10.8 13.3v65.6h29.4q12.1 0 12.1 12v70.6c0 3.9-1.1 6.8-3.1 8.9-2.2 2.1-5.1 3.2-9 3.2h-30v257.1c0 3.8-1.1 6.7-3.1 8.9q-3.3 3.1-8.9 3.1h-78.2c-4.1 0-7-1-9-3.1-2.1-2.2-3-5.1-3-8.9z"/>
			</g>
		</g>
		<g id="Clip-Path: Clip-Path: path31" clip-path="url(#cp15)">
			<g id="Clip-Path: path31">
				<path id="path31" class="s1" d="m2667.3 367.7c0 36.5-7 76.5-21.5 105.1q-21.8 43.1-63.3 67.4-41.5 24.4-98.1 24.4c-34.8 0-66.1-8.6-93.5-25.8-12-7.4-22.2-16.5-31.9-26.2l36.6-51.9c2.2-3.3 4.6-5 7.4-5.4 2.8-0.4 5.9 0.6 9.1 3q15 10.5 30.8 16.1c10.5 3.7 22.3 6.2 35.4 5.5 45.1-2.4 64.3-21.9 71.7-31 5.2-6.4 15.5-36.5 16.7-40.1h-0.8c0.1-0.3 0.3-0.5 0.4-0.8l-165.9 0.5q2.5-0.6 4.3-2.1 3.1-2.7 3.9-8.4 0.6-6.3 0.9-12.2 0.3-5.8 0.3-11.6c0-36.4-7.3-69-21.9-97.7q-11.7-23.3-29.3-41.1 15-15.3 34.3-26.6 41.5-24.3 98-24.3 52.4-0.1 93.5 25.7c11.9 7.4 22.3 16.5 31.9 26.2l-36.5 51.9c-2.2 3.3-4.7 5.1-7.5 5.5-2.8 0.4-5.9-0.7-9-3q-15.1-10.6-30.8-16.2c-10.6-3.7-22.4-5.7-35.4-5.5-47.2 0.8-64.3 21.9-71.7 31-5.3 6.4-15.8 29.2-17 32.8h0.8c-0.1 0.2-0.3 0.4-0.4 0.7l244.7-0.7q5.4-0.1 8.7 2.7 3.3 2.6 3.9 8.4 0.6 6.3 0.9 12.2 0.3 5.8 0.3 11.5z"/>
				<path id="path29 copy" class="s5" d="m2697 310.6h-56.9c-4 0-7-1.1-9-3.2-2-2.1-3-5-3-8.9v-70.6q0-12 12-12h56.6v-83.3c0-4.1 1.1-7.1 3.6-9.1 2.4-2 5.6-2.5 9.6-1.8l79.1 15.3c7.2 1.5 10.8 5.9 10.8 13.3v65.6h29.4q12.1 0 12.1 12v70.6c0 3.9-1.1 6.8-3.1 8.9-2.2 2.1-5.1 3.2-9 3.2h-30v257.1c0 3.8-1.1 6.7-3.1 8.9q-3.3 3.1-8.9 3.1h-78.2c-4.1 0-7-1-9-3.1-2.1-2.2-3-5.1-3-8.9z"/>
				<path id="path31 copy" class="s1" d="m2664.3 365.7c0 36.5-7 76.5-21.5 105.1q-21.8 43.1-63.3 67.4-41.5 24.4-98.1 24.4c-34.8 0-66.1-8.6-93.5-25.8-12-7.4-22.2-16.5-31.9-26.2l36.6-51.9c2.2-3.3 4.6-5 7.4-5.4 2.8-0.4 5.9 0.6 9.1 3q15 10.5 30.8 16.1c10.5 3.7 22.3 6.2 35.4 5.5 45.1-2.4 64.3-21.9 71.7-31 5.2-6.4 15.5-36.5 16.7-40.1h-0.8c0.1-0.3 0.3-0.5 0.4-0.8l-165.9 0.5q2.5-0.6 4.3-2.1 3.1-2.7 3.9-8.4 0.6-6.3 0.9-12.2 0.3-5.8 0.3-11.6c0-36.4-7.3-69-21.9-97.7q-11.7-23.3-29.3-41.1 15-15.3 34.3-26.6 41.5-24.3 98-24.3 52.4-0.1 93.5 25.7c11.9 7.4 22.3 16.5 31.9 26.2l-36.5 51.9c-2.2 3.3-4.7 5.1-7.5 5.5-2.8 0.4-5.9-0.7-9-3q-15.1-10.6-30.8-16.2c-10.6-3.7-22.4-5.7-35.4-5.5-47.2 0.8-64.3 21.9-71.7 31-5.3 6.4-15.8 29.2-17 32.8h0.8c-0.1 0.2-0.3 0.4-0.4 0.7l244.7-0.7q5.4-0.1 8.7 2.7 3.3 2.6 3.9 8.4 0.6 6.3 0.9 12.2 0.3 5.8 0.3 11.5z"/>
			</g>
		</g>
		<g id="Clip-Path: Clip-Path: path33" clip-path="url(#cp16)">
			<g id="Clip-Path: path33">
				<path id="path33" class="s6" d="m1734.1 341.9v70.7q0 12 12.1 12l94.4-0.4v127.3c0 3.9-1 6.8-3 8.9-2 2.1-5 3.2-9 3.2h-59.8q-5.2 0-8.5-2.3c-2.2-1.5-4-3.8-5.4-7l-7.5-18.1q-11.8 10.8-25.9 18.7c-9.4 5.2-19.8 9.2-31.2 12.2q-17.2 4.3-37.3 4.3c-34.3 0-65.9-8.5-94.8-25.4q-26.6-15.6-46.3-38-12.5-14.1-22.2-30.9-25.3-43.4-25.3-95.1v-1.1c0.2-33.9 8.7-65.1 25.4-93.5q3.3-5.6 6.8-10.8c16.1-23.8 36.8-42.9 61.9-57.6 28.9-16.9 60.3-25.3 94.5-25.3 13.6 0 26.1 1.5 37.7 4.4 11.5 2.9 22.1 7 31.6 12.3q14.2 8 26 19.1l8.7-20.5q2.1-4.7 5.4-7 3.3-2.3 8.4-2.3h57.8q12 0 12 12v117.8l-94.4 0.4q-12.1 0-12.1 12z"/>
			</g>
		</g>
		<g id="Clip-Path: Clip-Path: path35" clip-path="url(#cp17)">
			<g id="Clip-Path: path35">
				<path id="path35" class="s7" d="m2025.7 329.5h-50v-72.3q0-18.4 9.3-27.1c6.3-5.8 16.8-8.7 31.7-8.7h9.9q10.2 0 10.2-11.7v-59.6q0-6-3-9-3-3-9-3h-13.6q-48.1 0-78.3 10.7-30.2 10.7-44.7 34c-9.6 15.5-14.4 36-14.4 61.4v85.3h-33.2v94.7h33.2v221.8q0 5.8 3.2 8.9c2.1 2.1 5 3.2 8.8 3.2h78.2c4 0 7-1.1 9-3.2 2-2.1 3-5 3-8.9v-221.8h49.7c4 0 7-1.1 9-3.1 2-2.1 3-5.1 3-8.9v-70.7q0-12-12-12z"/>
			</g>
		</g>
		<g id="Clip-Path: Clip-Path: path37" clip-path="url(#cp18)">
			<g id="Clip-Path: path37">
				<path id="path37" class="s6" d="m2409.8 374.2q0 5.8-0.3 11.6-0.3 5.9-0.9 12.2-0.8 5.7-3.9 8.4-1.8 1.5-4.3 2.1-2 0.6-4.4 0.6l-244.7-0.7c0.1 0.2 0.3 0.4 0.4 0.7h-0.8c1.2 3.6 11.5 33.7 16.7 40.1 7.4 9.1 26.5 28.7 71.7 31 13 0.7 24.8-1.8 35.4-5.5q15.7-5.6 30.8-16.1 4.8-3.6 9-3 4.2 0.6 7.5 5.4l36.5 51.9c-9.6 9.7-19.9 18.8-31.9 26.2-27.4 17.2-58.6 25.8-93.5 25.8q-56.6 0-98-24.4-41.5-24.3-63.3-67.4c-14.5-28.6-21.6-68.6-21.6-105 0-3.9 0.2-7.7 0.3-11.6q0.3-5.9 0.9-12.2 0.7-5.7 3.9-8.4 3.3-2.7 8.7-2.7l244.7 0.7c0-0.3-0.2-0.4-0.3-0.7h0.7c-1.1-3.6-11.7-26.4-16.9-32.8-7.4-9.1-24.6-30.2-71.7-31-13.1-0.2-24.9 1.8-35.4 5.6q-15.8 5.5-30.8 16.1c-3.2 2.3-6.3 3.4-9.1 3-2.8-0.4-5.2-2.2-7.4-5.5l-36.6-51.9c9.7-9.7 20-18.8 31.9-26.2q41.2-25.7 93.5-25.7 56.6 0 98.1 24.3c12.7 7.5 24 16.3 33.9 26.3q17.6 17.8 29.3 41.1c14.6 28.7 21.9 61.3 21.9 97.7z"/>
				<path id="path37 copy" class="s6" d="m2409.8 374.2q0 5.8-0.3 11.6-0.3 5.9-0.9 12.2-0.8 5.7-3.9 8.4-1.8 1.5-4.3 2.1-2 0.6-4.4 0.6l-244.7-0.7c0.1 0.2 0.3 0.4 0.4 0.7h-0.8c1.2 3.6 11.5 33.7 16.7 40.1 7.4 9.1 26.5 28.7 71.7 31 13 0.7 24.8-1.8 35.4-5.5q15.7-5.6 30.8-16.1 4.8-3.6 9-3 4.2 0.6 7.5 5.4l36.5 51.9c-9.6 9.7-19.9 18.8-31.9 26.2-27.4 17.2-58.6 25.8-93.5 25.8q-56.6 0-98-24.4-41.5-24.3-63.3-67.4c-14.5-28.6-21.6-68.6-21.6-105 0-3.9 0.2-7.7 0.3-11.6q0.3-5.9 0.9-12.2 0.7-5.7 3.9-8.4 3.3-2.7 8.7-2.7l244.7 0.7c0-0.3-0.2-0.4-0.3-0.7h0.7c-1.1-3.6-11.7-26.4-16.9-32.8-7.4-9.1-24.6-30.2-71.7-31-13.1-0.2-24.9 1.8-35.4 5.6q-15.8 5.5-30.8 16.1c-3.2 2.3-6.3 3.4-9.1 3-2.8-0.4-5.2-2.2-7.4-5.5l-36.6-51.9c9.7-9.7 20-18.8 31.9-26.2q41.2-25.7 93.5-25.7 56.6 0 98.1 24.3c12.7 7.5 24 16.3 33.9 26.3q17.6 17.8 29.3 41.1c14.6 28.7 21.9 61.3 21.9 97.7z"/>
			</g>
		</g>
		<g id="Clip-Path: Clip-Path: path39" clip-path="url(#cp19)">
			<g id="Clip-Path: path39">
				<path id="path39" class="s5" d="m1725.1 460.7c-7.9 13.9-18.8 25-32.7 33q-20.7 12-46.1 12c-16.9 0-32.2-4-45.9-11.9q-20.7-11.9-32.4-32.9c-6.3-11.2-9.5-23.7-10.7-37.2-0.1-0.9 0.1-1.4 0.7-2.1 0.6-0.6 2.1-0.7 2.1-0.7h174.1c0 0 1 0.1 1.3 0.5 0.5 0.5 0.6 0.9 0.5 1.7-1.2 13.6-4.5 26.3-10.9 37.6z"/>
			</g>
		</g>
	</g>
</svg>